<?xml version="1.0" encoding="UTF-8" standalone="no"?>
<svg
   xmlns:dc="http://purl.org/dc/elements/1.1/"
   xmlns:cc="http://creativecommons.org/ns#"
   xmlns:rdf="http://www.w3.org/1999/02/22-rdf-syntax-ns#"
   xmlns:svg="http://www.w3.org/2000/svg"
   xmlns="http://www.w3.org/2000/svg"
   height="525.21271"
   width="535.67523"
   xml:space="preserve"
   viewBox="0 0 535.67523 525.21271"
   y="0px"
   x="0px"
   id="Layer_1"
   version="1.1"><metadata
   id="metadata140"><rdf:RDF><cc:Work
       rdf:about=""><dc:format>image/svg+xml</dc:format><dc:type
         rdf:resource="http://purl.org/dc/dcmitype/StillImage" /><dc:title></dc:title></cc:Work></rdf:RDF></metadata><defs
   id="defs138" />
<style
   id="style2"
   type="text/css">
	.st0{fill:#FFFFFF;}
	.st1{fill:#ABD7FC;}
	.st2{fill:#9E3195;}
	.st3{fill:#2E61FE;}
	.st4{fill:#649A47;}
	.st5{fill:#019421;}
	.st6{fill:#AF100C;}
	.st7{fill:#0745FF;}
	.st8{fill:#F4F43F;}
	.st9{fill:#FD7C22;}
	.st10{fill:#FF0013;}
</style>
<g
   transform="translate(-37.41482,-133.78729)"
   id="g133">
	<g
   id="XMLID_00000021090257006202030540000014541520766989418114_">
		<g
   id="g128">
			<g
   id="g6">
				<path
   style="fill:#ffffff"
   id="path4"
   d="m 389.72,568.84 c 3.8,0 6.85,3.05 6.85,6.82 0,3.8 -3.05,6.85 -6.85,6.85 -3.77,0 -6.82,-3.05 -6.82,-6.85 0,-3.77 3.05,-6.82 6.82,-6.82 z"
   class="st0" />
			</g>
			<g
   id="g10">
				<path
   style="fill:#ffffff"
   id="path8"
   d="m 313.56,569.53 c 0,3.77 -3.08,6.82 -6.85,6.82 -3.77,0 -6.85,-3.05 -6.85,-6.82 0,-1.21 0.31,-2.34 0.87,-3.3 3.58,0.47 7.13,0.59 10.55,0.12 0.47,-0.06 0.9,-0.12 1.37,-0.22 0.57,1 0.91,2.15 0.91,3.4 z"
   class="st0" />
			</g>
			<g
   id="g14">
				<path
   style="fill:#ffffff"
   id="path12"
   d="m 254.94,546.08 c 1.53,1.25 2.49,3.14 2.49,5.26 0,1.18 -0.31,2.3 -0.84,3.3 -1.15,2.12 -3.39,3.55 -5.98,3.55 -3.8,0 -6.85,-3.08 -6.85,-6.85 0,-3.77 3.05,-6.85 6.85,-6.85 1.65,0.01 3.14,0.6 4.33,1.59 z"
   class="st0" />
			</g>
			<g
   id="g18">
				<path
   style="fill:#ffffff"
   id="path16"
   d="m 322.03,543.75 c 3.8,0 6.85,3.05 6.85,6.82 0,3.8 -3.05,6.85 -6.85,6.85 -3.77,0 -6.82,-3.05 -6.82,-6.85 0,-3.77 3.05,-6.82 6.82,-6.82 z"
   class="st0" />
			</g>
			<g
   id="g22">
				<path
   style="fill:#ffffff"
   id="path20"
   d="m 391.93,515.91 c 3.8,0 6.85,3.05 6.85,6.85 0,3.77 -3.05,6.85 -6.85,6.85 -3.77,0 -6.82,-3.08 -6.82,-6.85 0,-3.8 3.05,-6.85 6.82,-6.85 z"
   class="st0" />
			</g>
			<g
   id="g26">
				<path
   style="fill:#ffffff"
   id="path24"
   d="m 225.08,582.04 c 3.77,0 6.82,3.05 6.82,6.85 0,3.77 -3.05,6.85 -6.82,6.85 -3.8,0 -6.85,-3.08 -6.85,-6.85 0,-3.79 3.05,-6.85 6.85,-6.85 z"
   class="st0" />
			</g>
			<g
   id="g30">
				<path
   style="fill:#ffffff"
   id="path28"
   d="m 259.23,575.66 c 0,3.8 -3.05,6.85 -6.82,6.85 -3.8,0 -6.85,-3.05 -6.85,-6.85 0,-3.77 3.05,-6.82 6.85,-6.82 3.74,0 6.79,3.02 6.82,6.76 0,0.03 0,0.03 0,0.06 z"
   class="st0" />
			</g>
			<g
   id="g34">
				<circle
   style="fill:#ffffff"
   id="circle32"
   r="6.8499999"
   cy="549.59998"
   cx="396.57001"
   class="st0" />
			</g>
			<g
   id="g38">
				<path
   style="fill:#ffffff"
   id="path36"
   d="m 368.83,526.44 c 3.77,0 6.82,3.05 6.82,6.85 0,3.77 -3.05,6.82 -6.82,6.82 -3.8,0 -6.85,-3.05 -6.85,-6.82 0,-3.8 3.05,-6.85 6.85,-6.85 z"
   class="st0" />
			</g>
			<g
   id="g42">
				<path
   style="fill:#ffffff"
   id="path40"
   d="m 276.76,555.92 c 1.59,1.25 2.62,3.18 2.62,5.32 0,3.8 -3.08,6.85 -6.85,6.85 -3.77,0 -6.85,-3.05 -6.85,-6.85 0,-2.05 0.9,-3.89 2.37,-5.11 2.92,0.13 5.82,0.04 8.71,-0.21 z"
   class="st0" />
			</g>
			<g
   id="g46">
				<path
   style="fill:#ffffff"
   id="path44"
   d="m 276.76,555.92 c -2.9,0.25 -5.79,0.34 -8.72,0.22 1.18,-1.06 2.74,-1.71 4.48,-1.71 1.63,0 3.09,0.56 4.24,1.49 z"
   class="st0" />
			</g>
			<g
   id="g50">
				<path
   style="fill:#ffffff"
   id="path48"
   d="m 217.23,532.79 c 3.8,0 6.85,3.05 6.85,6.85 0,3.77 -3.05,6.82 -6.85,6.82 -3.77,0 -6.82,-3.05 -6.82,-6.82 0,-3.8 3.05,-6.85 6.82,-6.85 z"
   class="st0" />
			</g>
			<g
   id="g54">
				<circle
   style="fill:#ffffff"
   id="circle52"
   r="6.8499999"
   cy="549.16998"
   cx="300.70001"
   class="st0" />
			</g>
			<g
   id="g58">
				<path
   style="fill:#ffffff"
   id="path56"
   d="m 226.54,557.42 c 3.8,0 6.85,3.05 6.85,6.85 0,3.77 -3.05,6.82 -6.85,6.82 -3.77,0 -6.82,-3.05 -6.82,-6.82 0,-3.8 3.05,-6.85 6.82,-6.85 z"
   class="st0" />
			</g>
			<g
   id="g62">
				<path
   style="fill:#ffffff"
   id="path60"
   d="m 355.35,547.14 c 0,3.77 -3.05,6.85 -6.82,6.85 -2.58,0 -4.86,-1.43 -6.01,-3.58 4.39,-0.56 8.72,-1.77 12.83,-3.49 0,0.07 0,0.16 0,0.22 z"
   class="st0" />
			</g>
			<g
   id="g66">
				<path
   style="fill:#ffffff"
   id="path64"
   d="m 311.29,566.35 c -3.42,0.47 -6.97,0.34 -10.55,-0.12 1.15,-2.12 3.39,-3.55 5.98,-3.55 2.55,0 4.76,1.37 5.95,3.46 -0.48,0.09 -0.91,0.15 -1.38,0.21 z"
   class="st0" />
			</g>
			<g
   id="g70">
				<path
   style="fill:#ffffff"
   id="path68"
   d="m 341.68,547.14 c 0,-3.77 3.05,-6.85 6.85,-6.85 3.71,0 6.69,2.96 6.82,6.63 -4.11,1.71 -8.44,2.93 -12.83,3.49 -0.53,-0.96 -0.84,-2.05 -0.84,-3.27 z"
   class="st0" />
			</g>
			<path
   style="fill:#abd7fc"
   id="path72"
   d="m 410.74,561.46 c -2.37,-16.81 -1.74,-11.46 -3.42,-24.6 -1.71,-13.33 -0.97,-21.64 -7.53,-25.44 -7.66,-4.42 -18.53,0.78 -27.65,5.76 -18.21,9.96 -25.34,13.73 -41.25,26.84 -4.89,-5.2 -12.3,-8.53 -20.61,-8.53 -10.12,0 -18.93,4.92 -23.44,12.17 l -0.97,-0.5 c -9.31,-2.86 -18.62,-5.76 -27.74,-9.22 -1.12,-0.44 -2.27,-0.87 -3.39,-1.31 -1.43,-0.56 -2.83,-1.15 -4.27,-1.71 -11.61,-4.76 -23.41,-9.84 -35.87,-9.22 -4.48,0.22 -9.28,1.49 -12.27,4.7 -0.44,0.44 -0.81,0.93 -1.15,1.49 -2.49,3.86 -2.02,8.97 -0.53,13.33 1.49,4.39 3.92,8.38 5.26,12.8 1.71,5.6 1.59,11.58 1.87,17.44 0.31,5.85 1.18,11.96 4.51,16.75 3.58,5.2 9.75,8.25 16,9.06 6.63,0.84 13.39,-0.59 19.55,-3.11 6.2,-2.52 11.89,-6.04 17.56,-9.59 3.18,-1.96 6.35,-3.95 9.5,-5.92 4.64,-2.9 9.28,-5.79 13.92,-8.69 l 0.9,-0.44 c 4.86,5.17 12.27,8.47 20.55,8.47 10.46,0 19.52,-5.29 23.88,-12.95 l 0.75,0.47 c 17.72,8.34 35.53,19.09 55.11,19.05 5.82,-0.03 12.39,-1.31 16.16,-5.76 2.68,-3.14 4.2,-6.97 4.76,-11.36 0.4,-3.03 0.3,-6.36 -0.19,-9.98 z m -18.81,-45.55 c 3.8,0 6.85,3.05 6.85,6.85 0,3.77 -3.05,6.85 -6.85,6.85 -3.77,0 -6.82,-3.08 -6.82,-6.85 0,-3.8 3.05,-6.85 6.82,-6.85 z m -69.9,27.84 c 3.8,0 6.85,3.05 6.85,6.82 0,3.8 -3.05,6.85 -6.85,6.85 -3.77,0 -6.82,-3.05 -6.82,-6.85 0,-3.77 3.05,-6.82 6.82,-6.82 z m -21.33,-1.43 c 3.77,0 6.85,3.08 6.85,6.85 0,3.77 -3.08,6.85 -6.85,6.85 -3.77,0 -6.85,-3.08 -6.85,-6.85 0,-3.77 3.09,-6.85 6.85,-6.85 z m -90.29,-2.68 c 0,-3.8 3.05,-6.85 6.82,-6.85 3.8,0 6.85,3.05 6.85,6.85 0,3.77 -3.05,6.82 -6.85,6.82 -3.77,0 -6.82,-3.05 -6.82,-6.82 z m 14.67,56.1 c -3.8,0 -6.85,-3.08 -6.85,-6.85 0,-3.8 3.05,-6.85 6.85,-6.85 3.77,0 6.82,3.05 6.82,6.85 0,3.77 -3.06,6.85 -6.82,6.85 z m 1.46,-24.66 c -3.77,0 -6.82,-3.05 -6.82,-6.82 0,-3.8 3.05,-6.85 6.82,-6.85 3.8,0 6.85,3.05 6.85,6.85 0,3.77 -3.05,6.82 -6.85,6.82 z m 24.07,-26.58 c 1.65,0 3.14,0.59 4.33,1.59 1.53,1.25 2.49,3.14 2.49,5.26 0,1.18 -0.31,2.3 -0.84,3.3 -1.15,2.12 -3.39,3.55 -5.98,3.55 -3.8,0 -6.85,-3.08 -6.85,-6.85 0,-3.77 3.05,-6.85 6.85,-6.85 z m 8.62,31.16 c 0,3.8 -3.05,6.85 -6.82,6.85 -3.8,0 -6.85,-3.05 -6.85,-6.85 0,-3.77 3.05,-6.82 6.85,-6.82 3.74,0 6.79,3.02 6.82,6.76 0,0.03 0,0.03 0,0.06 z m 13.3,-7.56 c -3.77,0 -6.85,-3.05 -6.85,-6.85 0,-2.05 0.9,-3.89 2.37,-5.11 1.18,-1.06 2.74,-1.71 4.48,-1.71 1.62,0 3.08,0.56 4.23,1.49 1.59,1.25 2.62,3.18 2.62,5.32 0,3.8 -3.09,6.86 -6.85,6.86 z m 34.18,8.25 c -3.77,0 -6.85,-3.05 -6.85,-6.82 0,-1.21 0.31,-2.34 0.87,-3.3 1.15,-2.12 3.39,-3.55 5.98,-3.55 2.55,0 4.76,1.37 5.95,3.46 0.56,1 0.9,2.15 0.9,3.39 0,3.77 -3.08,6.82 -6.85,6.82 z m 48.64,-29.21 c 0,3.77 -3.05,6.85 -6.82,6.85 -2.58,0 -4.86,-1.43 -6.01,-3.58 -0.53,-0.97 -0.84,-2.05 -0.84,-3.27 0,-3.77 3.05,-6.85 6.85,-6.85 3.71,0 6.69,2.96 6.82,6.63 0,0.07 0,0.16 0,0.22 z m 11.05,20.96 c -2.62,0 -4.92,-1.49 -6.01,-3.67 -0.53,-0.93 -0.81,-2.02 -0.81,-3.18 0,-3.77 3.05,-6.82 6.82,-6.82 3.8,0 6.85,3.05 6.85,6.82 0,3.79 -3.05,6.85 -6.85,6.85 z m 2.43,-27.99 c -3.8,0 -6.85,-3.05 -6.85,-6.82 0,-3.8 3.05,-6.85 6.85,-6.85 3.77,0 6.82,3.05 6.82,6.85 0,3.76 -3.06,6.82 -6.82,6.82 z m 20.89,42.4 c -3.77,0 -6.82,-3.05 -6.82,-6.85 0,-3.77 3.05,-6.82 6.82,-6.82 3.8,0 6.85,3.05 6.85,6.82 0,3.8 -3.05,6.85 -6.85,6.85 z m 6.85,-26.06 c -3.77,0 -6.85,-3.08 -6.85,-6.85 0,-3.77 3.08,-6.85 6.85,-6.85 3.77,0 6.85,3.08 6.85,6.85 0,3.77 -3.08,6.85 -6.85,6.85 z"
   class="st1" />
			<g
   id="g76">
				<path
   style="fill:#ffffff"
   id="path74"
   d="m 360.39,564.42 c -0.53,-0.93 -0.81,-2.02 -0.81,-3.18 0,-3.77 3.05,-6.82 6.82,-6.82 3.8,0 6.85,3.05 6.85,6.82 0,3.8 -3.05,6.85 -6.85,6.85 -2.62,0.01 -4.92,-1.49 -6.01,-3.67 z"
   class="st0" />
			</g>
			<g
   id="g80">
				<path
   style="fill:#9e3195"
   id="path78"
   d="m 553.4,287.63 c 23.2,26.09 23.13,69.65 -0.12,95.68 -5.88,6.57 -13.17,12.39 -16.19,20.67 -3.67,10.06 -0.53,22.42 -6.97,30.98 -1.37,1.81 -3.08,3.3 -4.73,4.86 -2.77,2.55 -5.36,4.42 -7.75,5.73 -10.37,5.6 -17.53,0.44 -21.95,-8.87 -4.48,-9.4 -9.65,-21.02 -18.49,-26.56 -1.4,-0.87 -2.83,-1.59 -4.33,-2.21 -4.92,-2.05 -10.37,-3.02 -15.51,-4.67 -7.25,-2.37 -14.07,-6.2 -19.83,-11.24 13.98,2.34 29.17,-6.29 34.09,-19.68 1.31,-3.58 1.99,-7.44 3.89,-10.74 3.39,-5.82 10.21,-9.09 13.42,-15.01 5.23,-9.68 -0.81,-23.13 5.73,-32.01 6.51,-8.84 20.14,-6.63 30.42,-10.43 11.27,-4.17 19.18,-17.65 16.78,-29.39 3.32,4.61 7.74,8.59 11.54,12.89 z"
   class="st2" />
			</g>
			<g
   id="g84">
				<path
   style="fill:#2e61fe"
   id="path82"
   d="m 541.84,274.74 c 2.4,11.74 -5.51,25.22 -16.78,29.39 -10.27,3.8 -23.91,1.59 -30.42,10.43 -6.54,8.87 -0.5,22.32 -5.73,32.01 -3.21,5.92 -10.03,9.18 -13.42,15.01 -1.9,3.3 -2.58,7.16 -3.89,10.74 -4.92,13.39 -20.11,22.01 -34.09,19.68 -1.43,-1.21 -2.83,-2.55 -4.14,-3.95 -6.82,-7.25 -12.24,-16.66 -21.55,-20.21 -14.17,-5.42 -32.6,11.61 -47.67,9.87 17.68,-8.59 23.01,-22.17 25.34,-32.69 2.3,-10.52 1.43,-21.45 0.06,-32.13 -0.34,-2.65 -0.68,-5.48 0.4,-7.91 1.56,-3.52 5.73,-5.17 9.56,-5.51 3.86,-0.31 7.75,0.37 11.58,-0.12 12.45,-1.62 20.33,-15.32 20.21,-27.87 -0.03,-4.39 -0.78,-8.84 0.06,-13.14 1.68,-8.5 9.18,-14.57 16.59,-19.05 16.19,-9.81 37.33,-16.38 55.67,-11.64 l 0.03,-0.03 c 7.38,8.69 22.14,9.18 28.46,18.84 4.11,6.29 3.36,14.54 5.98,21.55 0.92,2.43 2.23,4.65 3.75,6.73 z"
   class="st3" />
			</g>
			<g
   id="g88">
				<path
   style="fill:#649a47"
   id="path86"
   d="m 517.62,445.55 c 0,15.16 -7.72,25.78 -11.36,37.98 -0.4,1.28 -0.81,2.58 -1.77,3.49 -2.46,2.27 -6.38,0.4 -9.15,-1.53 -2.4,-1.65 -4.83,-3.36 -6.69,-5.64 -5.11,-6.26 -4.61,-15.23 -6.73,-23.04 -2.18,-8.1 -7.32,-15.35 -8.06,-23.69 -0.72,-7.78 1.53,-17.78 -1,-25.22 1.49,0.62 2.93,1.34 4.33,2.21 8.84,5.54 14.01,17.16 18.49,26.56 4.41,9.31 11.57,14.48 21.94,8.88 z"
   class="st4" />
			</g>
			<g
   id="g92">
				<path
   style="fill:#019421"
   id="path90"
   d="m 503.67,227.6 -0.03,0.03 c -18.34,-4.73 -39.48,1.84 -55.67,11.64 -7.41,4.48 -14.91,10.55 -16.59,19.05 -0.84,4.3 -0.09,8.75 -0.06,13.14 0.12,12.55 -7.75,26.25 -20.21,27.87 -3.83,0.5 -7.72,-0.19 -11.58,0.12 -3.83,0.34 -8,1.99 -9.56,5.51 -1.09,2.43 -0.75,5.26 -0.4,7.91 1.37,10.68 2.24,21.61 -0.06,32.13 -2.34,10.52 -7.66,24.1 -25.34,32.69 -13.39,-1.53 -25.69,-15.75 -37.55,-22.11 -10.59,-5.67 -21.83,-4.48 -33.03,-0.93 5.57,-3.46 15.88,-13.67 12.39,-27.52 -0.75,-2.96 -1.25,-6.01 -1.4,-9.03 -0.4,-8.25 5.45,-16.13 3.92,-24.25 -1.12,-5.88 -5.82,-10.31 -8.97,-15.38 -4.36,-7.01 -5.79,-15.75 -3.89,-23.76 3.14,-13.42 14.85,-24.16 15.66,-37.89 0.47,-7.94 -2.8,-15.54 -4.76,-23.26 -3.24,-12.95 -1.46,-29.52 2.93,-42.13 l 0.03,-0.37 c 6.07,0.5 12.11,0.34 18.09,-1 13.14,-2.96 24.66,-11.46 37.95,-13.48 14.26,-2.15 28.49,3.42 41.72,9.15 17.78,7.72 35.34,15.94 52.65,24.66 14.94,7.57 31.07,17 36.05,33 2.46,7.85 2.05,16.88 7.04,23.41 0.21,0.3 0.39,0.55 0.67,0.8 z"
   class="st5" />
			</g>
			<g
   id="g96">
				<path
   style="fill:#649a47"
   id="path94"
   d="m 436.2,564.67 c 2.96,-0.59 5.51,2.74 5.36,5.76 -0.16,3.02 -2.09,5.6 -3.95,8 -7.53,9.75 -15.1,19.49 -22.64,29.24 -3.89,5.01 -7.97,10.21 -13.7,12.95 -3.36,1.62 -7.16,2.34 -10.37,4.27 -5.08,3.11 -8.31,10.15 -10.8,15.54 -25.28,10.06 -52.77,15.75 -81.54,16.22 7.75,-3.67 13.33,-11.68 14.07,-20.21 0.22,-2.24 0,-4.76 -1.65,-6.29 -1.43,-1.4 -3.61,-1.65 -5.64,-1.62 -6.63,0.03 -14.42,1.68 -18.96,-3.18 -1.37,-1.46 -2.21,-3.33 -3.21,-5.08 -3.21,-5.54 -8.22,-9.78 -13.11,-13.89 -0.72,-0.62 -1.53,-1.4 -1.4,-2.37 0.25,-1.84 3.33,-1.74 4.08,-3.42 0.16,-1.21 -1.49,-1.71 -2.34,-2.58 -1.4,-1.46 -0.47,-3.99 1.06,-5.32 1.53,-1.31 3.42,-2.15 4.86,-3.61 2.12,-2.18 0.47,-5.7 -1.43,-6.41 4.64,-2.9 9.28,-5.79 13.92,-8.69 l 0.9,-0.44 c 4.86,5.17 12.27,8.47 20.55,8.47 10.46,0 19.52,-5.29 23.88,-12.95 l 0.75,0.47 c 17.72,8.34 35.53,19.09 55.11,19.05 5.82,-0.03 12.39,-1.31 16.16,-5.76 2.68,-3.14 4.2,-6.97 4.76,-11.36 5.76,-4.51 15.29,-0.44 21.36,-4.51 1.28,-0.85 2.43,-2 3.92,-2.28 z"
   class="st4" />
			</g>
			<g
   id="g100">
				<path
   style="fill:#af100c"
   id="path98"
   d="m 337.47,395.08 c 18.74,12.05 31.14,33.1 31.14,57.04 0,37.49 -30.42,67.91 -67.91,67.91 -16.41,0 -31.45,-5.82 -43.18,-15.51 -6.13,-5.08 -11.36,-11.18 -15.41,-18.09 -5.92,-10.06 -9.31,-21.79 -9.31,-34.31 0,-28.55 17.62,-52.99 42.59,-63.02 3.99,-1.62 8.19,-2.86 12.52,-3.67 4.14,-0.81 8.41,-1.21 12.8,-1.21 13.54,-0.01 26.18,3.98 36.76,10.86 z"
   class="st6" />
			</g>
			<g
   id="g104">
				<path
   style="fill:#649a47"
   id="path102"
   d="m 336.54,390.13 c 1.25,2.12 1.28,2.21 1.25,4.48 l -0.31,0.47 c -10.59,-6.88 -23.23,-10.87 -36.77,-10.87 -4.39,0 -8.66,0.4 -12.8,1.21 v -0.03 c 0.28,-3.99 0.62,-15.1 0.9,-19.09 0.06,-0.72 0.12,-1.43 0.62,-2.02 0.62,-0.78 1.84,-0.97 3.05,-1 0.44,-0.03 0.87,-0.03 1.28,-0.03 3.49,0.09 7.44,5.98 9.87,8.03 0.81,0.68 1.4,1.56 2.3,2.21 0.9,0.62 2.24,0.81 3.24,0.37 2.83,-1.18 1.49,-4.86 3.67,-5.04 0.75,-0.06 1.4,0.34 1.96,0.75 7.53,5.23 13.26,11.58 19.46,17.84 0.85,0.85 1.69,1.75 2.28,2.72 z"
   class="st4" />
			</g>
			<g
   id="g108">
				<path
   style="fill:#0745ff"
   id="path106"
   d="m 310.98,630.15 c 1.65,1.53 1.87,4.05 1.65,6.29 -0.75,8.53 -6.32,16.53 -14.07,20.21 -1.25,0.03 -2.49,0.03 -3.74,0.03 -114.92,0 -210.19,-83.94 -228,-193.85 15.63,-1.12 21.86,-18.21 21.79,-31.85 -0.03,-2.86 -0.37,-5.88 0.78,-8.56 2.52,-5.85 10.27,-6.51 16.47,-8.1 11.18,-2.83 20.61,-11.8 24.04,-22.82 0.16,-0.53 0.31,-1.06 0.44,-1.59 1.03,-3.64 1.74,-7.44 3.99,-10.43 4.23,-5.67 12.45,-6.48 19.46,-5.45 4.48,0.68 8.97,1.9 13.42,2.4 l -0.12,1.28 c 2.43,5.95 -0.53,12.7 -4.33,17.81 -3.83,5.14 -8.69,9.75 -10.77,15.79 -4.05,11.77 3.49,24.07 5.32,36.4 1.37,9.15 -0.47,18.59 1.4,27.65 1.15,5.57 3.74,10.87 7.38,15.23 1.65,1.96 4.95,0.87 5.11,-1.71 0.34,-6.32 -0.25,-12.7 -1.74,-18.87 -0.78,-3.21 -1.46,-7.29 0.19,-9.75 0.62,-0.97 2.12,-0.9 2.65,0.09 6.38,11.96 9.65,25.59 9.34,39.14 -0.09,3.21 -0.34,6.54 0.72,9.59 1.15,3.21 3.64,5.76 6.1,8.16 4.23,4.08 8.62,8.06 13.08,11.89 l 0.81,1.31 c -0.44,0.44 -0.81,0.93 -1.15,1.49 -2.49,3.86 -2.02,8.97 -0.53,13.33 1.49,4.39 3.92,8.38 5.26,12.8 1.71,5.6 1.59,11.58 1.87,17.44 0.31,5.85 1.18,11.96 4.51,16.75 3.58,5.2 9.75,8.25 16,9.06 6.63,0.84 13.39,-0.59 19.55,-3.11 6.2,-2.52 11.89,-6.04 17.56,-9.59 3.18,-1.96 6.35,-3.95 9.5,-5.92 1.9,0.72 3.55,4.23 1.43,6.41 -1.43,1.46 -3.33,2.3 -4.86,3.61 -1.53,1.34 -2.46,3.86 -1.06,5.32 0.84,0.87 2.49,1.37 2.34,2.58 -0.75,1.68 -3.83,1.59 -4.08,3.42 -0.12,0.97 0.68,1.74 1.4,2.37 4.89,4.11 9.9,8.34 13.11,13.89 1,1.74 1.84,3.61 3.21,5.08 4.55,4.86 12.33,3.21 18.96,3.18 2,-0.05 4.18,0.2 5.61,1.6 z"
   class="st7" />
			</g>
			<g
   id="g112">
				<path
   style="fill:#f4f43f"
   id="path110"
   d="m 258.92,361.48 c -1.71,-0.22 -3.49,-0.47 -5.39,-0.68 -11.08,-1.31 -19.74,-11.52 -30.89,-12.08 -3.24,-0.19 -6.23,0.47 -9.06,1.62 l -0.03,-1.21 c -5.11,-9.06 -6.2,-20.3 -2.93,-30.17 1.84,-5.57 4.98,-10.65 6.91,-16.19 1.96,-5.54 2.58,-12.02 -0.47,-17.03 -3.83,-6.35 -12.11,-8.34 -17.34,-13.61 -4.95,-4.98 -6.66,-12.92 -4.17,-19.49 1.56,-4.11 4.61,-7.69 5.36,-12.02 1.15,-6.69 -3.64,-13.17 -9.37,-16.81 -5.73,-3.67 -12.45,-5.45 -18.49,-8.56 -6.07,-3.11 -11.8,-8.28 -12.58,-15.04 v -0.22 c 12.24,-1.25 7.94,-23.29 17.4,-29.52 4.17,-2.74 9.59,-1.99 14.57,-2.12 20.86,-0.59 37.46,-18.31 57.85,-22.79 19.43,-4.23 39.48,3.99 59.19,5.51 l -0.03,0.37 c -4.39,12.61 -6.16,29.17 -2.93,42.13 1.96,7.72 5.23,15.32 4.76,23.26 -0.81,13.73 -12.52,24.47 -15.66,37.89 -1.9,8 -0.47,16.75 3.89,23.76 3.14,5.08 7.85,9.5 8.97,15.38 1.53,8.13 -4.33,16 -3.92,24.25 0.16,3.02 0.65,6.07 1.4,9.03 3.49,13.86 -6.82,24.07 -12.39,27.52 -0.44,0.12 -0.87,0.28 -1.34,0.44 -3.64,1.21 -7.32,2.65 -10.93,4.17 -8.28,3.49 -14.44,3.15 -22.38,2.21 z"
   class="st8" />
			</g>
			<g
   id="g116">
				<path
   style="fill:#649a47"
   id="path114"
   d="m 275.2,388.6 0.19,0.5 c -24.97,10.03 -42.59,34.47 -42.59,63.02 0,12.52 3.39,24.25 9.31,34.31 -7.22,-3.49 -14.82,-0.93 -17.81,2.58 -1.09,1.31 -1.9,2.86 -2.49,4.48 -2.05,5.6 -1.46,12.3 2.21,17.03 3.67,4.7 10.52,6.94 16.03,4.64 2.58,-1.09 4.73,-3.05 7.25,-4.36 1.4,-0.75 3.02,-1.25 4.58,-1.25 1.25,0 2.43,0.31 3.42,1.06 1.59,1.15 2.34,3.14 2.65,5.07 1.12,6.51 -2.05,15.32 -7.5,19.24 -11.61,-4.76 -23.41,-9.84 -35.87,-9.22 -4.48,0.22 -9.28,1.49 -12.27,4.7 l -0.81,-1.31 c -4.45,-3.83 -8.84,-7.81 -13.08,-11.89 -2.46,-2.4 -4.95,-4.95 -6.1,-8.16 -1.06,-3.05 -0.81,-6.38 -0.72,-9.59 0.31,-13.54 -2.96,-27.18 -9.34,-39.14 -0.53,-1 -2.02,-1.06 -2.65,-0.09 -1.65,2.46 -0.97,6.54 -0.19,9.75 1.49,6.16 2.09,12.55 1.74,18.87 -0.16,2.58 -3.46,3.67 -5.11,1.71 -3.64,-4.36 -6.23,-9.65 -7.38,-15.23 -1.87,-9.06 -0.03,-18.49 -1.4,-27.65 -1.84,-12.33 -9.37,-24.63 -5.32,-36.4 2.09,-6.04 6.94,-10.65 10.77,-15.79 3.8,-5.11 6.76,-11.86 4.33,-17.81 l 0.12,-1.28 c 2.55,0.31 5.08,0.37 7.63,-0.03 15.44,-2.37 25.19,-20.46 38.76,-26.06 2.83,-1.15 5.82,-1.81 9.06,-1.62 11.15,0.56 19.8,10.77 30.89,12.08 1.9,0.22 3.67,0.47 5.39,0.68 l -3.95,4.76 c -0.72,0.87 -0.87,2.15 -0.25,3.14 1.62,2.68 0.84,7.13 3.46,9.15 1.03,0.81 2.43,1.03 3.74,1.18 2.86,0.4 5.79,0.84 8.38,2.18 2.56,1.4 4.74,3.86 4.92,6.75 z"
   class="st4" />
			</g>
			<path
   style="fill:#0745ff"
   id="path118"
   d="m 517.62,445.55 c 0,15.16 -7.72,25.78 -11.36,37.98 -0.4,1.28 -0.81,2.58 -1.77,3.49 -2.46,2.27 -6.38,0.4 -9.15,-1.53 -2.4,-1.65 -4.83,-3.36 -6.69,-5.64 -5.11,-6.26 -4.61,-15.23 -6.73,-23.04 -2.18,-8.1 -7.32,-15.35 -8.06,-23.69 -0.72,-7.78 1.53,-17.78 -1,-25.22 -4.92,-2.05 -10.37,-3.02 -15.51,-4.67 -7.25,-2.37 -14.07,-6.2 -19.83,-11.24 -1.43,-1.21 -2.83,-2.55 -4.14,-3.95 -6.82,-7.25 -12.24,-16.66 -21.55,-20.21 -14.17,-5.42 -32.6,11.61 -47.67,9.87 -13.39,-1.53 -25.69,-15.75 -37.55,-22.11 -10.59,-5.67 -21.83,-4.48 -33.03,-0.93 -0.44,0.12 -0.87,0.28 -1.34,0.44 -3.64,1.21 -7.32,2.65 -10.93,4.17 -8.28,3.49 -14.45,3.14 -22.39,2.21 l -3.95,4.76 c -0.72,0.87 -0.87,2.15 -0.25,3.14 1.62,2.68 0.84,7.13 3.46,9.15 1.03,0.81 2.43,1.03 3.74,1.18 2.86,0.4 5.79,0.84 8.38,2.18 2.55,1.34 4.73,3.8 4.92,6.69 l 0.19,0.5 c 3.99,-1.62 8.19,-2.86 12.52,-3.67 v -0.03 c 0.28,-3.99 0.62,-15.1 0.9,-19.09 0.06,-0.72 0.12,-1.43 0.62,-2.02 0.62,-0.78 1.84,-0.97 3.05,-1 0.44,-0.03 0.87,-0.03 1.28,-0.03 3.49,0.09 7.44,5.98 9.87,8.03 0.81,0.68 1.4,1.56 2.3,2.21 0.9,0.62 2.24,0.81 3.24,0.37 2.83,-1.18 1.49,-4.86 3.67,-5.04 0.75,-0.06 1.4,0.34 1.96,0.75 7.53,5.23 13.26,11.58 19.46,17.84 0.84,0.84 1.68,1.74 2.27,2.71 1.25,2.12 1.28,2.21 1.25,4.48 l -0.31,0.47 c 18.74,12.05 31.14,33.1 31.14,57.04 0,37.49 -30.42,67.91 -67.91,67.91 -16.41,0 -31.45,-5.82 -43.18,-15.51 -6.13,-5.08 -11.36,-11.18 -15.41,-18.09 -7.22,-3.49 -14.82,-0.93 -17.81,2.58 -1.09,1.31 -1.9,2.86 -2.49,4.48 -2.05,5.6 -1.46,12.3 2.21,17.03 3.67,4.7 10.52,6.94 16.03,4.64 2.58,-1.09 4.73,-3.05 7.25,-4.36 1.4,-0.75 3.02,-1.25 4.58,-1.25 1.25,0 2.43,0.31 3.42,1.06 1.59,1.15 2.34,3.14 2.65,5.08 1.12,6.51 -2.05,15.32 -7.5,19.24 1.43,0.56 2.83,1.15 4.27,1.71 1.12,0.44 2.27,0.87 3.39,1.31 9.12,3.46 18.43,6.35 27.74,9.22 l 0.97,0.5 c 4.51,-7.25 13.33,-12.17 23.44,-12.17 8.31,0 15.72,3.33 20.61,8.53 15.91,-13.11 23.04,-16.88 41.25,-26.84 9.12,-4.98 19.99,-10.18 27.65,-5.76 6.57,3.8 5.82,12.11 7.53,25.44 1.68,13.14 1.06,7.78 3.42,24.6 0.5,3.61 0.59,6.94 0.19,9.99 5.76,-4.51 15.29,-0.44 21.36,-4.51 1.28,-0.84 2.43,-1.99 3.92,-2.27 2.96,-0.59 5.51,2.74 5.36,5.76 -0.16,3.02 -2.09,5.6 -3.95,8 -7.53,9.75 -15.1,19.49 -22.64,29.24 -3.89,5.01 -7.97,10.21 -13.7,12.95 -3.36,1.62 -7.16,2.34 -10.37,4.27 -5.08,3.11 -8.31,10.15 -10.8,15.54 81.2,-32.29 139.77,-109.32 145.28,-200.6 -2.79,2.55 -5.37,4.42 -7.77,5.73 z"
   class="st7" />
			<g
   id="g122">
				<path
   style="fill:#fd7c22"
   id="path120"
   d="m 217.08,285.73 c 3.05,5.01 2.43,11.49 0.47,17.03 -1.93,5.54 -5.08,10.62 -6.91,16.19 -3.27,9.87 -2.18,21.11 2.93,30.17 l 0.03,1.21 c -13.57,5.6 -23.32,23.69 -38.76,26.06 -2.55,0.4 -5.08,0.34 -7.63,0.03 -4.45,-0.5 -8.94,-1.71 -13.42,-2.4 -7.01,-1.03 -15.23,-0.22 -19.46,5.45 -2.24,2.99 -2.96,6.79 -3.99,10.43 l -0.31,-0.09 c -0.78,-0.47 -3.11,-0.37 -3.92,-0.47 -7.57,-0.84 -12.24,-9.06 -12.92,-16.66 -0.68,-7.6 1.31,-15.23 0.87,-22.85 -0.12,-2.3 -0.53,-4.7 -1.77,-6.69 -3.52,-5.54 -12.14,-5.67 -16.1,-10.93 -5.54,-7.29 1.59,-18.46 -2.37,-26.71 -1.84,-3.83 -5.85,-6.26 -9.99,-7.25 -3.89,-0.9 -7.97,-0.75 -11.99,-0.47 0.06,-0.03 0.16,-0.06 0.22,-0.09 -7.91,-19.24 -1.46,-41.38 7.72,-60.06 7.41,-15.04 17.09,-29.77 31.51,-38.36 7.07,-4.23 15.38,-6.63 23.6,-6.63 8.97,0 16.19,7.07 23.94,7.41 0.59,0.03 1.12,0 1.65,-0.06 v 0.22 c 0.78,6.76 6.51,11.92 12.58,15.04 6.04,3.11 12.77,4.89 18.49,8.56 5.73,3.64 10.52,10.12 9.37,16.81 -0.75,4.33 -3.8,7.91 -5.36,12.02 -2.49,6.57 -0.78,14.51 4.17,19.49 5.23,5.26 13.52,7.25 17.35,13.6 z"
   class="st9" />
			</g>
			<g
   id="g126">
				<path
   style="fill:#ff0013"
   id="path124"
   d="m 130.33,389.91 c -0.12,0.53 -0.28,1.06 -0.44,1.59 -3.42,11.02 -12.86,19.99 -24.04,22.82 -6.2,1.59 -13.95,2.24 -16.47,8.1 -1.15,2.68 -0.81,5.7 -0.78,8.56 0.06,13.64 -6.16,30.73 -21.79,31.85 -12.42,1.56 -24.78,-12.17 -26.59,-25.69 -2.09,-15.44 3.49,-30.98 2.46,-46.52 -0.84,-12.77 -5.2,-28.18 4.51,-36.52 7.69,-6.6 22.76,-7.16 23.2,-17.28 0.37,-9.06 -12.89,-13.29 -14.23,-22.26 -1.25,-8.22 7.91,-13.76 15.66,-16.78 4.02,-0.28 8.1,-0.44 11.99,0.47 4.14,1 8.16,3.42 9.99,7.25 3.95,8.25 -3.18,19.43 2.37,26.71 3.95,5.26 12.58,5.39 16.1,10.93 1.25,1.99 1.65,4.39 1.77,6.69 0.44,7.63 -1.56,15.26 -0.87,22.85 0.68,7.6 5.36,15.82 12.92,16.66 0.81,0.09 3.14,0 3.92,0.47 z"
   class="st10" />
			</g>
		</g>
		<path
   id="path130"
   d="m 555.15,286.08 c -1.37,-1.55 -2.83,-3.07 -4.25,-4.55 -2.51,-2.61 -5.1,-5.32 -7.17,-8.17 -1.57,-2.14 -2.69,-4.17 -3.43,-6.2 -0.99,-2.65 -1.46,-5.51 -1.96,-8.54 -0.76,-4.59 -1.54,-9.33 -4.25,-13.47 -3.72,-5.68 -9.86,-8.42 -15.79,-11.06 -5,-2.23 -9.71,-4.33 -12.84,-8.01 l -0.23,-0.23 c -0.1,-0.09 -0.18,-0.19 -0.38,-0.45 -2.92,-3.83 -3.8,-8.78 -4.73,-14.01 -0.51,-2.87 -1.04,-5.84 -1.93,-8.68 -5.3,-17.03 -22,-26.68 -37.23,-34.39 -17.21,-8.67 -34.96,-16.98 -52.77,-24.72 -13.7,-5.93 -28.3,-11.53 -43,-9.32 -7.45,1.13 -14.34,4.21 -21.01,7.18 -5.53,2.47 -11.25,5.02 -17.1,6.33 -5.22,1.17 -10.91,1.48 -17.4,0.95 -6.76,-0.52 -13.73,-1.88 -20.48,-3.2 -12.92,-2.52 -26.27,-5.12 -39.39,-2.26 -9.31,2.05 -17.82,6.73 -26.05,11.26 -10.42,5.74 -20.26,11.16 -31.36,11.47 -0.97,0.02 -1.95,0.01 -2.94,0 -4.18,-0.04 -8.92,-0.09 -12.85,2.5 -5.02,3.3 -6.61,9.78 -8.15,16.04 -1.93,7.83 -3.44,12.62 -8.24,13.11 -0.47,0.05 -0.86,0.07 -1.28,0.05 -3.18,-0.14 -6.45,-1.67 -9.92,-3.28 -4.35,-2.03 -8.85,-4.13 -14.13,-4.13 -8.5,0 -17.31,2.47 -24.8,6.96 -12.58,7.5 -22.88,20 -32.41,39.33 -11.5,23.4 -14.4,43.5 -8.62,59.8 -10.92,4.71 -16.3,11.24 -15.2,18.51 0.75,5.04 4.4,8.54 7.92,11.93 3.45,3.32 6.44,6.18 6.28,9.89 -0.2,4.59 -4.43,6.69 -11.38,9.62 -3.88,1.63 -7.9,3.32 -11,5.99 -8.76,7.52 -7.33,19.92 -6.08,30.86 0.3,2.65 0.59,5.15 0.75,7.59 0.46,6.97 -0.48,14.17 -1.39,21.13 -1.09,8.33 -2.22,16.95 -1.05,25.54 1.8,13.5 13.69,27.84 26.93,27.83 0,0 0.01,0 0.01,0 9.14,53.27 36.79,102.02 78.02,137.45 42.23,36.29 96.19,56.27 151.94,56.27 1.27,0 2.53,0 3.77,-0.03 28.48,-0.46 56.19,-5.98 82.37,-16.39 40.71,-16.19 76,-43.49 102.04,-78.96 26.36,-35.9 41.79,-78.32 44.65,-122.74 l 0.12,-0.11 c 1.44,-1.34 2.93,-2.73 4.21,-4.41 4.18,-5.56 4.71,-12.36 5.21,-18.95 0.35,-4.51 0.68,-8.77 2.09,-12.64 2.12,-5.81 6.54,-10.35 11.23,-15.16 1.5,-1.54 3.05,-3.13 4.51,-4.76 11.63,-13.02 18.05,-30.55 18.08,-49.37 0.02,-18.8 -6.35,-36.35 -17.94,-49.4 z M 145.92,599.2 C 105.59,564.55 78.54,516.91 69.53,464.83 c 14.78,-2.7 21.48,-19.05 21.41,-33.87 -0.01,-0.5 -0.02,-1.02 -0.04,-1.53 -0.06,-2.23 -0.13,-4.34 0.62,-6.08 1.63,-3.78 6.48,-4.85 11.62,-5.99 1.12,-0.25 2.22,-0.49 3.28,-0.76 11.94,-3.03 22.03,-12.6 25.7,-24.43 0.16,-0.55 0.32,-1.11 0.46,-1.66 0.17,-0.61 0.33,-1.22 0.5,-1.84 0.77,-2.91 1.5,-5.66 3.1,-7.78 4.3,-5.75 13.49,-5.09 17.24,-4.54 1.86,0.28 3.78,0.67 5.63,1.05 2.19,0.44 4.43,0.89 6.68,1.2 2.22,5.95 -1.68,12.56 -4.24,15.99 -1.01,1.36 -2.13,2.72 -3.21,4.03 -3.03,3.69 -6.17,7.5 -7.79,12.18 -2.86,8.32 -0.28,16.83 2.21,25.06 1.2,3.97 2.45,8.08 3.04,12.07 0.62,4.12 0.56,8.44 0.51,12.61 -0.06,4.97 -0.13,10.1 0.91,15.12 1.2,5.81 3.87,11.31 7.71,15.91 1.16,1.38 3.04,1.91 4.79,1.33 1.75,-0.58 2.95,-2.13 3.06,-3.96 0.35,-6.48 -0.25,-12.98 -1.79,-19.32 -0.38,-1.55 -1.53,-6.29 -0.05,-8.55 6.3,11.79 9.46,25.06 9.16,38.36 l -0.03,1 c -0.1,3.02 -0.21,6.14 0.84,9.16 1.24,3.45 3.77,6.11 6.49,8.75 4.16,4.01 8.56,8.01 13.08,11.9 -0.2,0.26 -0.39,0.54 -0.57,0.83 -2.41,3.74 -2.66,8.95 -0.69,14.67 0.72,2.12 1.65,4.14 2.54,6.09 1.04,2.26 2.02,4.39 2.7,6.66 1.34,4.39 1.51,9.2 1.68,13.85 0.04,1.07 0.08,2.14 0.13,3.22 0.3,5.71 1.11,12.26 4.79,17.55 3.61,5.24 9.84,8.78 17.09,9.72 1.35,0.17 2.72,0.26 4.11,0.26 5.14,0 10.58,-1.16 16.23,-3.47 6.07,-2.47 11.43,-5.72 17.79,-9.71 2.28,-1.41 4.56,-2.83 6.83,-4.25 l 1.83,-1.14 c 0.35,0.36 0.68,0.89 0.82,1.51 0.12,0.54 0.14,1.33 -0.48,1.96 -0.69,0.71 -1.56,1.27 -2.47,1.87 -0.76,0.5 -1.55,1.01 -2.3,1.66 -1.33,1.17 -2.2,2.89 -2.27,4.49 -0.05,1.2 0.33,2.27 1.12,3.09 0.38,0.4 0.83,0.7 1.22,0.97 0.12,0.08 0.26,0.17 0.39,0.27 -0.26,0.15 -0.59,0.3 -0.86,0.43 -1.06,0.49 -2.67,1.23 -2.91,3.06 -0.24,1.86 1.22,3.13 1.94,3.76 4.75,4 9.67,8.13 12.76,13.47 0.22,0.39 0.44,0.79 0.65,1.19 0.77,1.43 1.58,2.91 2.77,4.18 4.14,4.43 10.52,4.1 16.15,3.81 1.38,-0.07 2.68,-0.14 3.97,-0.14 2.24,-0.04 3.67,0.34 4.55,1.21 1.25,1.15 1.32,3.35 1.16,5.01 -0.65,7.39 -5.07,14.25 -11.39,17.98 -0.4,0.01 -0.79,0.03 -1.19,0.03 -1.23,0.03 -2.5,0.02 -3.68,0.03 -54.64,-0.02 -107.52,-19.6 -148.91,-55.16 z m 107.47,-229 c 0.52,0.87 0.75,2.11 0.99,3.42 0.39,2.16 0.84,4.61 2.83,6.15 1.34,1.05 3.03,1.33 4.48,1.5 2.56,0.36 5.47,0.77 7.87,2.02 1.74,0.91 3.61,2.65 4.01,4.9 -25.75,10.91 -42.33,35.86 -42.33,63.94 0,11.01 2.61,21.82 7.58,31.54 -6.38,-1.43 -12.65,0.75 -15.71,4.36 -1.12,1.35 -2.05,3.01 -2.76,4.94 -2.36,6.44 -1.43,13.54 2.45,18.52 4.22,5.41 11.9,7.61 17.87,5.12 1.59,-0.67 3,-1.62 4.36,-2.54 1.02,-0.69 1.98,-1.34 3.02,-1.88 2.35,-1.25 4.85,-1.42 6.35,-0.3 1.28,0.93 1.81,2.72 2.03,4.08 1.01,5.87 -1.81,13.5 -6.22,17.19 l -0.47,-0.19 c -11.25,-4.62 -22.89,-9.4 -35.22,-8.79 -5.36,0.26 -9.82,1.9 -12.69,4.59 l 0.71,-0.82 c -4.5,-3.87 -8.88,-7.85 -13.01,-11.83 -2.44,-2.38 -4.71,-4.74 -5.72,-7.55 -0.85,-2.46 -0.76,-5.28 -0.66,-8.02 l 0.03,-1.03 c 0.32,-13.84 -2.97,-27.64 -9.52,-39.9 -0.51,-0.96 -1.48,-1.56 -2.59,-1.61 -1.12,-0.06 -2.14,0.48 -2.72,1.38 -2,2.98 -1.27,7.43 -0.41,10.98 1.46,6.04 2.04,12.24 1.7,18.41 -0.05,0.82 -0.73,1.11 -0.93,1.18 -0.2,0.07 -0.91,0.24 -1.42,-0.37 -3.51,-4.21 -5.95,-9.23 -7.05,-14.54 -0.97,-4.69 -0.91,-9.43 -0.84,-14.46 0.05,-4.29 0.11,-8.74 -0.54,-13.11 -0.63,-4.22 -1.91,-8.44 -3.14,-12.52 -2.46,-8.11 -4.78,-15.77 -2.25,-23.14 1.43,-4.14 4.26,-7.58 7.25,-11.22 1.1,-1.34 2.24,-2.73 3.3,-4.15 2.75,-3.69 6.81,-10.62 5.1,-17.49 2.18,0.14 4.19,0.06 6.08,-0.24 9.46,-1.45 16.72,-8.16 23.74,-14.64 5.18,-4.78 10.07,-9.3 15.55,-11.56 2.77,-1.13 5.4,-1.6 8.06,-1.45 5.23,0.26 9.96,2.94 14.98,5.77 4.89,2.76 9.95,5.61 15.76,6.3 0.7,0.08 1.39,0.17 2.06,0.25 l -1.56,1.89 c -1.2,1.41 -1.35,3.4 -0.4,4.92 z m 34.82,16.75 c 4.02,-0.79 8.23,-1.19 12.5,-1.19 12.82,0 25.24,3.67 35.92,10.61 h 0.01 c 19.05,12.25 30.42,33.08 30.42,55.73 0,36.58 -29.76,66.35 -66.35,66.35 -15.37,0 -30.35,-5.38 -42.19,-15.15 -6.06,-5.02 -11.13,-10.96 -15.06,-17.68 -5.95,-10.12 -9.09,-21.71 -9.09,-33.52 0,-27.25 16.34,-51.42 41.62,-61.57 3.92,-1.59 8.03,-2.79 12.22,-3.58 z m 1.2,-3.36 c 0.11,-2.1 0.23,-4.92 0.34,-7.67 0.15,-3.71 0.31,-7.54 0.45,-9.49 0.05,-0.61 0.1,-1 0.32,-1.27 0.13,-0.16 0.56,-0.44 2.06,-0.48 0.4,-0.03 0.8,-0.03 1.14,-0.03 1.88,0.05 4.51,2.95 6.43,5.06 0.93,1.02 1.8,1.99 2.57,2.64 0.29,0.24 0.56,0.54 0.85,0.85 0.43,0.46 0.91,0.98 1.56,1.45 1.33,0.92 3.18,1.12 4.57,0.51 2.11,-0.88 2.6,-2.73 2.93,-3.96 0.09,-0.35 0.24,-0.89 0.32,-0.98 0.28,-0.03 0.68,0.23 1.05,0.5 6.21,4.31 11.1,9.32 16.28,14.63 0.99,1.01 1.98,2.03 2.99,3.05 0.72,0.72 1.54,1.58 2.06,2.43 0.45,0.77 0.71,1.21 0.86,1.61 -10.7,-6.41 -22.91,-9.79 -35.49,-9.79 -3.84,0.01 -7.63,0.33 -11.29,0.94 z m 122.94,188.78 c 2.51,-1.67 5.88,-1.74 9.46,-1.78 3.93,-0.05 8,-0.11 11.33,-2.35 0.36,-0.24 0.71,-0.5 1.07,-0.76 0.79,-0.59 1.54,-1.14 2.31,-1.29 0.84,-0.17 1.53,0.25 1.97,0.63 0.98,0.84 1.59,2.26 1.52,3.53 -0.13,2.45 -1.72,4.67 -3.63,7.13 -3.77,4.87 -7.54,9.74 -11.32,14.62 -3.78,4.87 -7.55,9.75 -11.32,14.62 -3.78,4.86 -7.68,9.89 -13.14,12.5 -1.35,0.65 -2.78,1.15 -4.29,1.67 -2.08,0.72 -4.22,1.47 -6.21,2.67 -4.98,3.05 -8.14,9.23 -10.66,14.62 -0.06,0.03 -0.13,0.05 -0.19,0.08 -23.59,9.38 -48.47,14.7 -74.04,15.84 5.04,-4.45 8.4,-10.79 8.99,-17.51 0.33,-3.41 -0.39,-5.96 -2.11,-7.55 -1.96,-1.91 -4.79,-2.1 -6.73,-2.06 -1.35,0.01 -2.75,0.08 -4.1,0.15 -5.43,0.27 -10.56,0.54 -13.72,-2.83 -0.92,-0.98 -1.59,-2.22 -2.3,-3.54 -0.23,-0.42 -0.45,-0.84 -0.69,-1.25 -3.37,-5.82 -8.49,-10.13 -13.43,-14.28 -0.77,-0.67 -0.87,-0.92 -0.88,-0.98 0.1,-0.17 0.75,-0.47 1.14,-0.65 1,-0.46 2.24,-1.03 2.83,-2.36 l 0.09,-0.21 0.03,-0.23 c 0.23,-1.77 -1.18,-2.73 -2.03,-3.31 -0.28,-0.19 -0.57,-0.39 -0.73,-0.55 -0.12,-0.12 -0.27,-0.34 -0.25,-0.8 0.03,-0.74 0.53,-1.68 1.2,-2.27 0.59,-0.5 1.26,-0.94 1.97,-1.41 1.01,-0.66 2.06,-1.35 2.99,-2.3 1.22,-1.26 1.69,-3.01 1.29,-4.81 -0.21,-0.92 -0.63,-1.79 -1.18,-2.51 l 11.86,-7.4 c 5.32,5.18 12.85,8.13 20.86,8.13 10.17,0 19.36,-4.72 24.41,-12.42 2.82,1.33 5.69,2.75 8.47,4.12 14.82,7.31 30.14,14.87 46.78,14.87 0.03,0 0.06,0 0.09,0 5.5,-0.03 12.97,-1.15 17.34,-6.31 2.59,-3.1 4.26,-6.96 4.95,-11.46 z m -77.33,-17 c 0.2,1.11 0.31,2.24 0.31,3.38 0,3.32 -0.86,6.53 -2.54,9.54 -4.27,7.5 -12.9,12.17 -22.53,12.17 -7.57,0 -14.65,-2.91 -19.43,-7.99 -2.19,-2.29 -3.8,-4.98 -4.74,-7.88 4.49,1.27 9.51,2.57 14.44,3.19 2.21,0.29 4.28,0.43 6.23,0.43 1.65,0 3.22,-0.1 4.73,-0.31 0.5,-0.07 0.97,-0.13 1.43,-0.23 8.44,-1.42 15.86,-5.56 22.1,-12.3 z m 74.36,15.89 c -0.54,4.2 -2.02,7.75 -4.41,10.56 -3.6,4.26 -10.13,5.18 -14.97,5.21 -0.03,0 -0.05,0 -0.08,0 -15.9,0 -30.9,-7.4 -45.4,-14.55 -2.72,-1.34 -5.53,-2.72 -8.3,-4.04 0.67,-1.41 1.19,-2.85 1.56,-4.32 2.95,1.66 6.38,2.08 9.68,2.26 1.38,0.07 2.75,0.1 4.12,0.1 3.04,0 6.04,-0.17 8.94,-0.51 1.14,-0.09 2.32,-0.23 3.7,-0.45 0.85,-0.13 1.43,-0.93 1.29,-1.78 -0.13,-0.85 -0.94,-1.44 -1.78,-1.29 -1.3,0.21 -2.4,0.34 -3.52,0.43 -4.1,0.48 -8.34,0.61 -12.59,0.4 -3.2,-0.17 -6.5,-0.57 -9.02,-2.28 -0.09,-0.06 -0.18,-0.11 -0.27,-0.15 0.06,-0.69 0.11,-1.38 0.11,-2.09 0,-2.17 -0.33,-4.31 -0.95,-6.37 1.82,-0.05 3.57,-0.19 5.23,-0.43 4.4,-0.56 8.85,-1.77 13.24,-3.6 4.14,-1.77 7.96,-4.03 11.37,-6.71 0.68,-0.53 0.79,-1.51 0.26,-2.19 -0.53,-0.68 -1.51,-0.79 -2.19,-0.26 -3.2,2.51 -6.79,4.63 -10.66,6.29 -4.12,1.72 -8.3,2.85 -12.45,3.38 -1.89,0.27 -3.91,0.4 -6.01,0.42 -0.83,-1.79 -1.89,-3.48 -3.19,-5.06 14.49,-11.84 21.63,-15.74 38.22,-24.81 l 1.56,-0.85 c 9.64,-5.27 19.48,-9.61 26.12,-5.78 4.55,2.63 5.08,7.96 5.95,16.78 0.22,2.25 0.47,4.8 0.82,7.51 1.02,7.95 1.19,9.11 1.7,12.56 0.33,2.23 0.8,5.41 1.73,12.05 0.5,3.61 0.56,6.74 0.19,9.57 z m -79.64,-26.17 c 1.8,1.92 3.18,4.05 4.14,6.41 0.05,0.1 0.08,0.22 0.12,0.32 -6.02,7.07 -13.28,11.38 -21.65,12.79 -0.43,0.09 -0.84,0.14 -1.28,0.2 -3.02,0.41 -6.33,0.37 -10.15,-0.13 -5.31,-0.67 -10.82,-2.18 -15.6,-3.56 -0.1,-0.78 -0.16,-1.57 -0.16,-2.37 0,-1.15 0.11,-2.25 0.31,-3.36 0.05,-0.14 0.08,-0.29 0.09,-0.45 0.46,-2.26 1.32,-4.43 2.57,-6.45 4.39,-7.06 12.87,-11.44 22.12,-11.44 7.59,0 14.69,2.93 19.49,8.04 z m -47.03,8.42 c -1.97,0.38 -3.97,0.67 -6.08,0.86 -3.02,0.26 -5.8,0.33 -8.52,0.21 -3.76,-0.15 -7.53,-0.64 -11.21,-1.46 -1.84,-0.38 -3.77,-0.9 -6.1,-1.64 -0.82,-0.26 -1.69,0.19 -1.96,1.01 -0.26,0.82 0.19,1.7 1.01,1.96 2.43,0.77 4.47,1.32 6.39,1.72 3.84,0.86 7.78,1.37 11.73,1.53 0.89,0.04 1.78,0.06 2.69,0.06 2,0 4.06,-0.09 6.23,-0.28 1.81,-0.16 3.54,-0.39 5.25,-0.68 -0.06,0.65 -0.09,1.3 -0.09,1.96 0,1.43 0.14,2.85 0.4,4.23 0.05,0.23 0.11,0.46 0.16,0.69 -6.55,5.81 -14.89,9.49 -23.55,10.38 -0.03,0 -0.07,0.01 -0.1,0.01 -0.05,0.01 -0.1,0.01 -0.15,0.01 -0.14,0.01 -0.27,0.03 -0.41,0.05 -0.85,0.14 -1.42,0.94 -1.28,1.79 0.13,0.76 0.79,1.3 1.53,1.3 0.09,0 0.17,-0.01 0.26,-0.02 0.05,-0.01 0.1,-0.01 0.15,-0.01 0.12,-0.01 0.23,-0.02 0.35,-0.04 8.83,-0.91 17.35,-4.52 24.2,-10.23 0.88,2.22 2.1,4.31 3.63,6.2 l -15.87,9.91 c -2.26,1.41 -4.54,2.84 -6.82,4.25 -6.24,3.91 -11.48,7.09 -17.32,9.47 -6.67,2.73 -12.99,3.74 -18.76,3.01 -6.37,-0.82 -11.81,-3.89 -14.92,-8.4 -3.24,-4.66 -3.96,-10.67 -4.24,-15.94 -0.05,-1.05 -0.09,-2.11 -0.12,-3.17 -0.17,-4.85 -0.35,-9.86 -1.81,-14.64 -0.75,-2.47 -1.82,-4.8 -2.85,-7.05 -0.86,-1.88 -1.76,-3.83 -2.43,-5.8 -0.95,-2.78 -2.18,-8.04 0.38,-12.01 0.3,-0.49 0.6,-0.88 0.96,-1.25 3.11,-3.34 8.35,-4.07 11.21,-4.21 11.64,-0.58 22.94,4.07 33.88,8.56 l 1.34,0.55 c 0.11,0.04 0.21,0.09 0.32,0.13 l 0.19,0.34 c 0.09,-0.05 0.17,-0.11 0.26,-0.16 0.45,0.18 0.89,0.36 1.33,0.54 0.72,0.29 1.43,0.58 2.16,0.87 l 3.41,1.31 c 8.65,3.28 17.4,6.03 27.06,9.01 -0.83,1.61 -1.46,3.31 -1.89,5.07 z m 196.53,7.35 c -24.56,33.44 -57.5,59.48 -95.49,75.53 2.07,-4.09 4.6,-8.12 7.96,-10.18 1.7,-1.02 3.61,-1.69 5.62,-2.39 1.53,-0.53 3.11,-1.08 4.62,-1.81 6.13,-2.93 10.45,-8.49 14.26,-13.4 3.77,-4.87 7.54,-9.74 11.32,-14.62 3.78,-4.87 7.55,-9.75 11.31,-14.61 1.73,-2.22 4.09,-5.25 4.28,-8.88 0.11,-2.21 -0.91,-4.58 -2.6,-6.04 -1.36,-1.18 -3,-1.65 -4.6,-1.33 -1.45,0.27 -2.58,1.11 -3.57,1.84 -0.3,0.23 -0.61,0.45 -0.93,0.67 -2.57,1.73 -6.01,1.78 -9.65,1.83 -3.09,0.04 -6.26,0.09 -9.07,1.2 0.08,-2.29 -0.05,-4.73 -0.42,-7.43 -0.94,-6.66 -1.41,-9.85 -1.74,-12.08 -0.5,-3.42 -0.67,-4.58 -1.69,-12.5 -0.34,-2.67 -0.59,-5.2 -0.81,-7.42 -0.9,-9.13 -1.55,-15.73 -7.49,-19.17 -7.97,-4.6 -18.73,0.04 -29.17,5.74 l -1.56,0.86 c -16.83,9.2 -24.03,13.14 -38.84,25.25 -5.34,-5.09 -12.81,-7.99 -20.72,-7.99 -9.8,0 -18.85,4.47 -23.98,11.74 -9.91,-3.05 -18.83,-5.84 -27.61,-9.17 l -3.39,-1.31 c -0.64,-0.25 -1.27,-0.51 -1.9,-0.76 4.54,-4.65 7.21,-12.59 6.1,-18.99 -0.44,-2.75 -1.57,-4.86 -3.25,-6.07 -1.21,-0.91 -2.68,-1.37 -4.36,-1.37 -2.17,0 -4.09,0.78 -5.29,1.42 -1.18,0.61 -2.27,1.35 -3.32,2.05 -1.29,0.87 -2.51,1.7 -3.82,2.25 -4.71,1.97 -10.81,0.18 -14.2,-4.16 -3.17,-4.08 -3.94,-10.18 -1.98,-15.54 0.58,-1.6 1.33,-2.95 2.22,-4.01 2.36,-2.77 8.87,-5.37 15.55,-2.36 4.08,6.84 9.28,12.92 15.49,18.06 12.4,10.23 28.09,15.86 44.18,15.86 38.3,0 69.46,-31.16 69.46,-69.46 0,-23.37 -11.57,-44.88 -30.98,-57.77 0.02,-2.25 -0.12,-2.68 -1.45,-4.95 -0.68,-1.12 -1.64,-2.13 -2.47,-2.96 -1,-1.01 -1.99,-2.02 -2.97,-3.03 -5.04,-5.17 -10.26,-10.52 -16.67,-14.96 -0.77,-0.55 -1.71,-1.1 -2.9,-1.01 -2.02,0.17 -2.5,1.97 -2.78,3.04 -0.3,1.12 -0.51,1.77 -1.33,2.11 -0.52,0.23 -1.35,0.12 -1.86,-0.23 -0.4,-0.29 -0.76,-0.67 -1.13,-1.07 -0.33,-0.36 -0.68,-0.72 -1.09,-1.07 -0.63,-0.54 -1.45,-1.43 -2.31,-2.38 -2.51,-2.76 -5.35,-5.9 -8.46,-5.98 -0.44,0 -0.91,0 -1.31,0.03 -1.27,0.03 -3.07,0.23 -4.08,1.49 -0.78,0.93 -0.87,1.97 -0.95,2.82 -0.14,2.01 -0.3,5.87 -0.45,9.6 -0.13,3.06 -0.26,6.2 -0.38,8.31 -3.43,0.7 -6.81,1.67 -10.09,2.9 -0.69,-2.61 -2.68,-5.01 -5.5,-6.49 -2.88,-1.49 -6.06,-1.94 -8.91,-2.34 -1.11,-0.13 -2.26,-0.31 -2.97,-0.87 -1.06,-0.82 -1.36,-2.49 -1.69,-4.25 -0.28,-1.53 -0.57,-3.12 -1.4,-4.5 -0.24,-0.39 -0.19,-0.94 0.13,-1.32 l 2.82,-3.4 c 7.79,0.9 14.5,1.26 23.23,-2.42 3.94,-1.66 7.46,-3.01 10.76,-4.11 l 0.36,-0.12 c 0.3,-0.1 0.59,-0.2 0.95,-0.3 12.95,-4.1 22.58,-3.86 31.23,0.77 4.08,2.19 8.23,5.35 12.62,8.7 8.13,6.2 16.53,12.61 25.76,13.67 7.48,0.86 15.46,-2.42 23.18,-5.59 8.79,-3.62 17.09,-7.03 23.93,-4.42 6.25,2.38 10.65,7.73 15.32,13.4 1.71,2.08 3.49,4.24 5.35,6.22 1.38,1.48 2.84,2.87 4.31,4.12 5.92,5.18 13.06,9.23 20.66,11.71 2.03,0.65 4.12,1.2 6.13,1.73 3.2,0.84 6.22,1.65 9.07,2.82 0.95,4.03 0.72,8.81 0.5,13.45 -0.16,3.31 -0.32,6.73 -0.04,9.8 0.47,5.21 2.55,9.99 4.56,14.61 1.32,3.04 2.69,6.18 3.55,9.36 0.65,2.39 1.06,4.98 1.45,7.49 0.89,5.67 1.82,11.53 5.57,16.13 1.93,2.34 4.32,4.07 7.01,5.92 2.71,1.89 5.18,2.84 7.27,2.84 1.49,0 2.78,-0.48 3.83,-1.45 1.25,-1.17 1.74,-2.72 2.21,-4.18 1.18,-3.94 2.77,-7.67 4.45,-11.61 3.23,-7.56 6.56,-15.37 6.94,-25 1.15,-0.65 2.32,-1.4 3.5,-2.27 -3.52,41.88 -18.46,81.8 -43.4,115.76 z M 475.3,411.71 c 0.22,0.13 0.43,0.25 0.64,0.38 7.8,4.89 12.64,15.09 16.91,24.08 l 0.71,1.5 c 3,6.32 6.9,10.3 11.59,11.84 3.34,1.09 6.95,0.87 10.77,-0.63 -0.66,8.35 -3.67,15.4 -6.59,22.25 -1.64,3.85 -3.35,7.84 -4.58,11.98 -0.35,1.11 -0.68,2.15 -1.33,2.76 -1.87,1.73 -5.66,-0.58 -7.21,-1.67 -2.04,-1.4 -4.57,-3.15 -6.37,-5.34 -3.22,-3.95 -4.04,-9.14 -4.91,-14.65 -0.41,-2.59 -0.83,-5.26 -1.52,-7.81 -0.91,-3.4 -2.33,-6.65 -3.7,-9.79 -2,-4.59 -3.9,-8.93 -4.32,-13.64 -0.26,-2.85 -0.11,-6.02 0.05,-9.37 0.19,-3.99 0.38,-8.08 -0.14,-11.89 z m 76.23,-29.96 c -1.39,1.55 -2.91,3.11 -4.37,4.61 -4.82,4.95 -9.81,10.07 -12.27,16.82 -1.63,4.47 -2,9.25 -2.36,13.88 -0.48,6.19 -0.93,12.03 -4.28,16.49 -1.03,1.36 -2.31,2.55 -3.67,3.81 l -0.79,0.74 v 0 c -2.51,2.31 -4.96,4.13 -7.28,5.39 -3.69,1.99 -7.02,2.52 -9.9,1.58 -3.43,-1.12 -6.4,-4.28 -8.83,-9.41 l -0.71,-1.5 c -4.32,-9.1 -9.7,-20.42 -18.66,-26.04 -1.44,-0.9 -2.96,-1.68 -4.66,-2.38 -3.18,-1.33 -6.54,-2.21 -9.79,-3.07 -1.96,-0.52 -3.98,-1.05 -5.89,-1.66 -7,-2.28 -13.57,-6.01 -19.05,-10.8 -1.36,-1.16 -2.69,-2.42 -3.95,-3.77 -1.77,-1.88 -3.49,-3.97 -5.16,-6 -4.84,-5.88 -9.85,-11.97 -17.25,-14.79 -8.56,-3.27 -18.12,0.66 -27.37,4.46 -7.17,2.95 -14.59,6 -20.87,5.27 -7.96,-0.91 -15.84,-6.92 -23.46,-12.74 -4.55,-3.47 -8.84,-6.74 -13.25,-9.11 -12.77,-6.83 -26,-3.9 -34.78,-1.12 -0.36,0.1 -0.73,0.23 -1.1,0.35 l -0.33,0.11 c -3.42,1.14 -7.05,2.52 -11.1,4.24 -7.84,3.3 -13.49,2.95 -21.18,2.05 l -1.66,-0.22 c -1.21,-0.16 -2.45,-0.32 -3.75,-0.47 -4.87,-0.58 -9.31,-3.08 -14,-5.73 -5.27,-2.97 -10.71,-6.05 -17.02,-6.36 -3.35,-0.19 -6.64,0.39 -10.09,1.79 -6.26,2.59 -11.69,7.6 -16.94,12.45 -6.5,6.01 -13.23,12.22 -21.29,13.46 -2.12,0.34 -4.33,0.34 -7,0.02 -2.45,-0.27 -4.89,-0.77 -7.47,-1.29 -1.91,-0.39 -3.88,-0.79 -5.87,-1.09 -9.69,-1.42 -17.59,0.9 -21.67,6.36 -2.14,2.85 -3.02,6.17 -3.87,9.38 -0.16,0.61 -0.32,1.21 -0.49,1.81 l -0.03,0.1 c -0.11,0.49 -0.26,0.98 -0.39,1.43 -3.19,10.27 -11.98,18.61 -22.39,21.25 -1.01,0.26 -2.07,0.49 -3.14,0.73 -5.78,1.28 -12.33,2.73 -14.9,8.7 -1.16,2.69 -1.08,5.55 -1,8.07 0.01,0.48 0.03,0.96 0.03,1.43 0.06,12.91 -5.51,27.16 -17.82,29.28 l -1.93,0.24 c -9.27,1.18 -22.04,-9.14 -23.98,-23.68 -1.08,-7.98 -0.04,-15.92 1.06,-24.32 0.94,-7.18 1.91,-14.61 1.42,-22.04 -0.17,-2.55 -0.48,-5.22 -0.77,-7.81 -1.18,-10.26 -2.4,-20.87 4.48,-26.78 2.55,-2.19 6.22,-3.73 9.77,-5.23 6.51,-2.74 13.9,-5.85 14.24,-13.73 0.24,-5.81 -3.99,-9.87 -7.71,-13.45 -3.1,-2.97 -6.02,-5.78 -6.54,-9.26 -1.09,-7.17 8.43,-12.01 14.2,-14.26 l 0.13,-0.06 c 0.1,-0.04 0.2,-0.08 0.28,-0.13 l 1.94,-0.97 -0.82,-2.01 c -6.32,-15.38 -3.75,-34.95 7.66,-58.14 9.11,-18.49 18.84,-30.37 30.61,-37.39 6.78,-4.06 14.74,-6.3 22.4,-6.3 4.24,0 8.26,1.88 12.15,3.69 3.73,1.74 7.58,3.54 11.67,3.72 0.66,0.04 1.31,0.01 2.01,-0.07 8.38,-0.85 10.44,-9.24 12.27,-16.64 1.33,-5.39 2.7,-10.96 6.18,-13.25 2.74,-1.8 6.39,-1.77 10.24,-1.73 1.04,0.01 2.08,0.02 3.11,-0.01 12.24,-0.35 23.04,-6.3 33.49,-12.05 7.94,-4.37 16.14,-8.89 24.79,-10.79 12.17,-2.65 24.47,-0.25 37.49,2.29 6.88,1.34 13.99,2.73 21.01,3.27 6.95,0.57 13.1,0.23 18.79,-1.05 6.31,-1.42 12.24,-4.07 17.98,-6.62 6.68,-2.98 12.98,-5.79 19.81,-6.83 13.48,-2.03 26.83,3.09 40.44,8.99 17.73,7.7 35.4,15.98 52.53,24.6 14.38,7.28 30.12,16.33 34.88,31.62 0.8,2.57 1.28,5.26 1.79,8.11 0.99,5.55 2.01,11.29 5.67,16.09 0.21,0.26 0.45,0.59 0.81,0.92 3.81,4.42 9.19,6.82 14.4,9.14 5.56,2.48 10.81,4.82 13.78,9.35 2.17,3.31 2.84,7.37 3.55,11.67 0.52,3.12 1.05,6.34 2.19,9.4 0.89,2.43 2.22,4.83 4.04,7.32 2.25,3.11 4.96,5.93 7.58,8.66 1.38,1.44 2.81,2.92 4.12,4.41 22.31,25.15 22.25,67.54 -0.14,92.6 z" />
	</g>
</g>
</svg>